<svg width="212.99999999999997" height="94.19533504742225" viewBox="0 0 350.00000000000006 154.78106697933237" class="looka-1j8o68f"><defs id="SvgjsDefs1493"></defs><g id="SvgjsG1494" featurekey="symbolContainer" transform="matrix(2.1839999999999997,0,0,2.1839999999999997,120,0)" fill="#007aff"><circle cx="25" cy="25" r="25"></circle></g><g id="SvgjsG1495" featurekey="monogramFeature-0" transform="matrix(1.3731952439249584,0,0,1.3731952439249584,136.00000261916207,1.3648792097829379)" fill="#ffffff"><path d="M28.32 41.760000000000005 l13.44 -23.82 l14.88 0 l0 42.06 l-14.04 0 l0 -15.72 l-8.94 15.72 l-10.74 0 l-13.62 -23.88 l0 -8.82 l16.38 28.02 l5.28 0 l16.32 -28.02 l0 28.02 l4.68 0 l0 -32.7 l-7.5 0 l-16.26 28.08 l-16.02 -28.08 l-7.5 0 l0 32.7 l4.62 0 l0 -8.82 l4.68 8.04 l0 5.46 l-13.98 0 l0 -42.06 l14.88 0 z"></path></g></svg>